<?xml version="1.0" encoding="UTF-8" standalone="no"?>
<!-- Created with Inkscape (http://www.inkscape.org/) -->

<svg
   width="297mm"
   height="210mm"
   viewBox="0 0 297 210"
   version="1.1"
   id="svg1"
   sodipodi:docname="End.svg"
   inkscape:version="1.3.2 (091e20e, 2023-11-25, custom)"
   xmlns:inkscape="http://www.inkscape.org/namespaces/inkscape"
   xmlns:sodipodi="http://sodipodi.sourceforge.net/DTD/sodipodi-0.dtd"
   xmlns="http://www.w3.org/2000/svg"
   xmlns:svg="http://www.w3.org/2000/svg">
  <sodipodi:namedview
     id="namedview1"
     pagecolor="#ffffff"
     bordercolor="#000000"
     borderopacity="0.25"
     inkscape:showpageshadow="2"
     inkscape:pageopacity="0.0"
     inkscape:pagecheckerboard="0"
     inkscape:deskcolor="#d1d1d1"
     inkscape:document-units="mm"
     inkscape:zoom="0.74564394"
     inkscape:cx="526.39065"
     inkscape:cy="470.0635"
     inkscape:window-width="1920"
     inkscape:window-height="1051"
     inkscape:window-x="-9"
     inkscape:window-y="-9"
     inkscape:window-maximized="1"
     inkscape:current-layer="layer1" />
  <defs
     id="defs1" />
  <g
     inkscape:label="Layer 1"
     inkscape:groupmode="layer"
     id="layer1">
    <path
       d="m 83.760305,60.648942 -0.09158,20.015612 -0.05502,18.992451 0.05502,43.995985 H 72.487861 l 0.110031,-50.966278 -0.05502,-17.329813 -0.05501,-14.707957 -2.419459,0.19184 -3.464225,0.255788 -0.513225,0.06394 q -0.879802,0 -0.879802,-2.302116 0,-2.046323 0.513208,-2.302114 0.146598,-0.127903 0.898135,-0.191842 h 22.490038 q 1.173063,0.06394 1.39301,0.383685 0.366593,0.51158 0.366593,2.174219 0,2.17422 -0.934784,2.17422 l -1.594656,-0.19184 -4.215729,-0.255788 z m 32.607805,25.7709 -0.0367,-17.96929 -0.0366,-7.993455 q 0,-3.133435 0.1466,-4.220545 0.1466,-1.087109 0.60487,-1.087109 0.69651,0 0.69651,3.900807 l -0.0183,4.34844 -0.0367,14.196377 -0.055,22.829313 0.055,23.78853 0.0367,16.69032 q 0,2.30213 -0.1466,3.13344 -0.12831,0.83132 -0.53155,0.83132 -0.42158,0 -0.58654,-0.89527 -0.1466,-0.89526 -0.1466,-3.26133 l 0.0183,-5.43554 0.055,-32.10172 V 91.279864 l -0.69652,-0.06394 -3.57421,-0.255788 -7.86325,0.319738 0.0183,17.649546 0.11003,34.72359 H 93.144996 l 0.09158,-55.442625 -0.03673,-14.64401 -0.01828,-13.492954 -0.03673,-3.708963 h 11.235844 l -0.0183,3.325277 -0.0916,26.730117 q 1.86959,0.447633 5.93869,0.447633 3.73917,0 6.15864,-0.447636 z m 16.38637,-2.046323 q -0.0367,2.941592 -0.0367,7.162134 v 3.836861 l 0.12832,44.123876 6.21363,-0.25579 4.39902,-0.19184 q 1.08144,0 1.08144,2.30212 0,1.91842 -0.5499,2.17421 -0.12831,0.064 -1.52132,0.12792 h -20.82206 l 0.0183,-3.32528 0.0183,-21.35852 0.0733,-22.893254 -0.1466,-39.711488 h 19.42905 q 1.30136,0 1.48467,0.191842 0.42156,0.383684 0.42156,2.174221 0,2.238168 -0.80648,2.238168 h -0.12832 l -9.18298,-0.447635 -0.0733,19.82377 1.99789,0.06394 6.41526,-0.383689 1.41136,-0.06394 q 0.76982,0 1.00811,0.447637 0.2566,0.447632 0.2566,1.790532 0,2.493959 -1.20973,2.493959 l -1.44801,-0.127886 z m 34.51403,0 q -0.0367,2.941592 -0.0367,7.162134 v 3.836861 l 0.12831,44.123876 6.21363,-0.25579 4.39903,-0.19184 q 1.08143,0 1.08143,2.30212 0,1.91842 -0.54987,2.17421 -0.12832,0.064 -1.52134,0.12792 h -20.82207 l 0.0183,-3.32528 0.0183,-21.35852 0.0733,-22.893254 -0.1466,-39.711488 h 19.42904 q 1.30138,0 1.48467,0.191842 0.42158,0.383684 0.42158,2.174221 0,2.238168 -0.80649,2.238168 h -0.12831 l -9.18298,-0.447635 -0.0733,19.82377 1.99788,0.06394 6.41526,-0.383689 1.41134,-0.06394 q 0.76984,0 1.00812,0.447637 0.25661,0.447632 0.25661,1.790532 0,2.493959 -1.20973,2.493959 l -1.44801,-0.127886 z m 36.45695,14.452169 V 88.14643 l -0.0367,-16.946127 -0.0183,-7.737667 -0.0183,-4.860022 q 0,-3.453171 0.67818,-3.453171 0.40326,0 0.54989,0.831317 0.16496,0.767374 0.16496,3.005539 v 0.895269 q -0.0183,1.3429 -0.0183,4.41239 l -0.0733,21.550355 -0.055,19.759827 0.055,20.78298 0.0733,20.84694 q -3.77582,-8.24925 -11.05255,-22.76536 -7.27673,-14.58007 -11.78573,-22.89326 l 0.0183,3.13343 0.18328,32.99699 0.0183,4.41239 q 0,2.74974 -0.73317,2.74974 -0.75149,0 -0.75149,-3.38922 l 0.0183,-4.47633 0.0183,-7.2261 0.0733,-32.805135 -0.1466,-44.187824 q 7.42336,16.050856 22.83828,46.042307 z m 5.16887,-42.461239 h 9.64118 q 3.77584,0 5.68209,1.27895 4.71062,3.133437 7.60664,17.521659 2.27283,11.318732 2.27283,24.939582 0,13.87665 -2.34615,25.25933 -2.8227,13.74873 -7.36835,17.07401 -1.17308,0.83132 -2.08955,1.02317 -0.91645,0.19184 -4.03245,0.19184 h -9.31126 l 0.055,-42.20545 z m 11.19917,4.092648 -0.0916,51.413913 0.11003,27.68932 q 2.45613,-0.0639 3.51923,-0.63947 1.08141,-0.63947 2.47446,-2.74975 3.28092,-4.92396 5.15051,-15.85901 1.6313,-9.40031 1.6313,-20.335356 0,-11.894262 -1.92456,-21.870094 -3.42758,-17.7135 -10.15443,-17.7135 z"
       id="text1"
       style="font-size:42.906px;font-family:Broadway;-inkscape-font-specification:'Broadway, Normal';fill:#ffffff;stroke:#d35f8d;stroke-width:0;fill-opacity:1"
       aria-label="THE END" />
  </g>
</svg>
