<?xml version="1.0" encoding="UTF-8" standalone="no"?>
<!-- Created with Inkscape (http://www.inkscape.org/) -->

<svg
   width="297mm"
   height="210mm"
   viewBox="0 0 297 210"
   version="1.1"
   id="svg1"
   sodipodi:docname="title1.svg"
   inkscape:version="1.3.2 (091e20e, 2023-11-25, custom)"
   xmlns:inkscape="http://www.inkscape.org/namespaces/inkscape"
   xmlns:sodipodi="http://sodipodi.sourceforge.net/DTD/sodipodi-0.dtd"
   xmlns="http://www.w3.org/2000/svg"
   xmlns:svg="http://www.w3.org/2000/svg">
  <sodipodi:namedview
     id="namedview1"
     pagecolor="#ffffff"
     bordercolor="#000000"
     borderopacity="0.25"
     inkscape:showpageshadow="2"
     inkscape:pageopacity="0.0"
     inkscape:pagecheckerboard="0"
     inkscape:deskcolor="#d1d1d1"
     inkscape:document-units="mm"
     inkscape:zoom="0.74564394"
     inkscape:cx="526.39065"
     inkscape:cy="470.0635"
     inkscape:window-width="1920"
     inkscape:window-height="1051"
     inkscape:window-x="-9"
     inkscape:window-y="-9"
     inkscape:window-maximized="1"
     inkscape:current-layer="layer1" />
  <defs
     id="defs1" />
  <g
     inkscape:label="Layer 1"
     inkscape:groupmode="layer"
     id="layer1">
    <path
       style="fill:#ff5555;fill-opacity:1;stroke:#000000;stroke-width:0.164;stroke-linecap:round;stroke-dasharray:none;stroke-opacity:1;paint-order:stroke fill markers"
       d="m 38.677418,123.83871 c 1.419355,-1.06452 2.872653,-2.08522 4.258064,-3.19355 1.303716,-1.04297 2.511351,-2.66265 3.903226,-3.54839 0.759963,-0.48361 1.678181,-0.66167 2.483871,-1.06451 0.381442,-0.19072 0.674809,-0.53648 1.064517,-0.70968 2.760541,-1.22691 7.184435,-1.86232 9.580644,-3.19355 3.265318,-1.81406 0.885092,-1.26877 4.612905,-2.12903 4.186925,-0.96622 8.528637,-1.16769 12.774191,-1.77419 5.423064,-0.77473 10.921373,-1.22884 16.322583,-2.12904 0.260881,-0.0435 0.454125,-0.28669 0.709676,-0.35484 4.600985,-1.22692 7.748935,-2.10506 12.064515,-3.90322 0.73241,-0.30517 1.37068,-0.83118 2.12903,-1.06452 0.79938,-0.24596 1.66545,-0.18254 2.48387,-0.35484 16.49834,-3.47333 -7.08547,1.08458 8.16129,-1.774189 1.78051,-0.333846 3.57026,-1.127299 5.32259,-1.419357 0.70002,-0.116668 1.4218,0.05894 2.12903,0 0.71698,-0.05975 1.41935,-0.236559 2.12903,-0.354838 2.01075,-0.118279 4.02031,-0.25903 6.03226,-0.354838 0.49677,-0.02365 2.83871,0.02957 3.19355,0 0.83347,-0.06946 1.64855,-0.313074 2.48387,-0.354838 4.24465,-0.212233 8.53443,0.282649 12.77419,0 16.83553,-1.12237 33.61504,0.576188 50.3871,1.774193 5.29783,0.378417 10.66461,-0.354838 15.96774,-0.354838 8.86371,0 17.87138,-0.568048 26.6129,-2.129034 5.56426,-0.993616 -0.42172,-0.263805 4.61291,-1.774192 8.91255,-2.673766 1.09604,0.642035 9.58064,-2.483872 2.14613,-0.790678 1.97,-1.16242 3.90323,-2.129033 0.80568,-0.402844 1.75537,-0.534696 2.48388,-1.064514 1.15186,-0.837718 1.69928,-2.338985 2.83869,-3.19355 9.49933,-7.124485 -0.75433,1.301351 3.90323,-2.838709 1.8088,-1.607828 3.07817,-1.878055 4.61291,-3.193547 0.762,-0.653159 1.41936,-1.419358 2.12902,-2.129034 0.28012,-0.280111 1.41936,-1.023474 1.41936,-1.064516 0,-0.28302 -1.12064,0.765818 -1.77419,1.419354 -2.08328,2.083271 -4.05651,4.213776 -6.03226,6.387098 -0.82796,0.946237 -1.65592,1.892472 -2.48386,2.838709 -0.35486,0.47312 -0.67966,0.970333 -1.06452,1.419355 -2.00332,2.337202 -4.33763,3.874185 -6.74194,5.677421 -0.87239,0.654288 -1.59298,1.500166 -2.48387,2.12903 -11.07323,7.816399 2.48111,-2.481805 -6.03226,3.903226 -2.20165,1.651233 -3.80895,4.130763 -6.03226,5.677423 -1.91504,1.3322 -3.98427,2.4313 -6.03226,3.54838 -0.95672,0.52185 -4.4454,1.5733 -4.96774,1.7742 -1.95727,0.75279 -3.50855,2.20408 -5.32258,3.19355 -0.55918,0.305 -1.27141,0.31862 -1.77419,0.70967 -0.59783,0.46498 -0.83319,1.29461 -1.41936,1.7742 -0.73804,0.60385 -1.68172,0.90368 -2.48387,1.41935 -2.98319,1.91777 -6.0432,3.73128 -9.2258,5.32258 -2.5711,1.28555 0.12042,-0.18648 -1.7742,0.35484 -2.70339,0.7724 -5.3892,1.90636 -8.16129,2.48387 -3.70831,0.77257 -7.26208,1.17016 -11,1.41936 -7.81144,0.52076 -15.93808,0.72798 -23.77419,0.35483 -5.70429,-0.27163 -11.34122,-1.33642 -17.03226,-1.77419 -5.76086,-0.44314 -11.32571,-0.95897 -17.03226,-1.77419 -4.90933,-0.70133 -4.69021,-0.0911 -11,-0.70968 -3.56271,-0.34928 -7.09047,-0.99618 -10.64516,-1.41935 -2.94564,-0.35067 -5.93173,-0.30888 -8.87097,-0.70968 -7.69393,-1.04917 1.7562,-0.54376 -7.09677,-1.06452 -7.904405,-0.46496 -15.844109,-0.35484 -23.774193,-0.35484 -2.60215,0 -5.204301,0 -7.806452,0 -1.35079,0 -2.923174,-0.1907 -4.258064,0 -0.370273,0.0529 -0.693372,0.30845 -1.064516,0.35484 -2.840146,0.35502 -6.110139,-0.6902 -8.870969,0 -0.617937,0.15449 -1.161745,0.53469 -1.774192,0.70968 -1.02303,0.2923 -2.457807,0 -3.548388,0 -2.193798,0 0.161528,-0.0861 -2.483871,0.35484 -0.676828,0.1128 -1.464601,-0.16611 -2.129031,0 -0.256585,0.0641 -0.47312,0.23656 -0.709679,0.35484 -0.709676,0.11828 -1.413965,0.27538 -2.129033,0.35484 -0.166015,0.0184 -1.863963,-0.13254 -2.12903,0 -0.105794,0.0529 0.08363,0.2712 0,0.35483 -0.08364,0.0836 -0.249047,-0.0529 -0.354838,0 -0.748068,0.37404 -1.182796,1.1828 -1.774196,1.7742 z"
       id="path13" />
    <path
       style="fill:#0055d4;fill-opacity:1;stroke:#000000;stroke-width:0.171618;stroke-linecap:round;stroke-dasharray:none;stroke-opacity:1;paint-order:stroke fill markers"
       d="m 34.777934,119.22298 c 1.563067,-6.51957 1.294902,-13.55997 3.886146,-19.868656 2.024598,-4.929114 6.06432,-8.864664 9.715366,-12.772708 1.487231,-1.591922 2.923336,-3.250693 4.663373,-4.612366 1.909664,-1.494418 4.149873,-2.595693 6.217832,-3.902772 1.300061,-0.821725 2.493933,-1.799164 3.886146,-2.483582 1.991877,-0.979218 4.150528,-1.644733 6.217834,-2.483582 3.67158,-1.489814 7.31797,-3.101004 11.269818,-3.902773 2.594476,-0.526378 5.542816,0.434594 8.160914,0 0.927831,-0.154017 1.798175,-0.529192 2.72029,-0.709596 9.998217,-1.956035 15.279407,-3.099839 25.259957,-3.547972 9.14194,-0.41048 26.43445,0.546449 33.80946,1.064391 25.72951,1.806964 2.14145,0.583411 24.87134,3.547974 6.66737,0.869597 17.50526,1.310339 24.48271,0.354797 5.33563,-0.730697 3.03966,-0.551836 8.54952,-2.83838 1.27011,-0.527087 2.63827,-0.849544 3.88615,-1.419189 8.82238,-4.027331 1.18043,-1.450576 7.38367,-3.193175 0.78305,-0.219971 1.54393,-0.504111 2.3317,-0.709597 0.12454,-0.03248 0.4802,-0.08363 0.3886,0 -0.20481,0.186996 -0.61655,0.134763 -0.77722,0.3548 -0.38695,0.529914 -0.51815,1.182656 -0.77723,1.773985 -0.77724,1.064394 -1.53154,2.143043 -2.33169,3.193176 -8.3896,11.010591 0.64671,-1.240444 -7.7723,10.289127 -5.16821,7.077717 -6.35211,9.905123 -13.60149,15.256292 -3.40859,2.516056 -7.03789,4.816925 -10.88122,6.74115 -4.22086,2.113246 -8.80779,3.549646 -13.21289,5.321966 -3.23765,1.3026 -6.44378,2.67288 -9.71537,3.90277 -9.34248,3.51215 -10.14992,3.51409 -19.43071,6.38635 -10.474,3.24154 -20.99806,6.49388 -31.86641,8.51514 -3.98572,0.74126 -8.03905,1.14066 -12.04705,1.77398 -2.728643,0.43118 -5.425581,1.02488 -8.160912,1.41919 -7.899798,1.13879 -16.107191,1.4192 -24.094101,1.4192 -3.538075,0 -8.995186,0.50614 -12.435662,-1.06439 -3.120021,-1.42426 -4.720418,-6.73284 -5.829218,-8.86994 -0.102783,-0.19811 -3.03675,-4.57943 -3.108917,-4.61237 -0.616953,-0.28163 -2.331684,0.51117 -2.331684,-0.35479"
       id="path12" />
    <text
       xml:space="preserve"
       style="font-style:normal;font-variant:normal;font-weight:normal;font-stretch:normal;font-size:28.4156px;font-family:Broadway;-inkscape-font-specification:'Broadway, Normal';font-variant-ligatures:normal;font-variant-caps:normal;font-variant-numeric:normal;font-variant-east-asian:normal;fill:#1a1a1a;stroke:#d35f8d;stroke-width:0.173756;stroke-linecap:round;stroke-dasharray:none;paint-order:stroke fill markers"
       x="68.102013"
       y="71.199081"
       id="text1"
       transform="scale(0.6190764,1.6153095)"><tspan
         sodipodi:role="line"
         id="tspan1"
         style="font-style:normal;font-variant:normal;font-weight:normal;font-stretch:normal;font-size:28.4156px;font-family:Broadway;-inkscape-font-specification:'Broadway, Normal';font-variant-ligatures:normal;font-variant-caps:normal;font-variant-numeric:normal;font-variant-east-asian:normal;fill:#ffffff;fill-opacity:1;stroke:#000000;stroke-width:0.173756;stroke-linecap:round;stroke-dasharray:none;stroke-opacity:1;paint-order:stroke fill markers"
         x="68.102013"
         y="71.199081">Ambulance Purgatory</tspan></text>
    <path
       style="fill:#ff5555;fill-opacity:1;stroke:#000000;stroke-width:0.164;stroke-linecap:round;stroke-dasharray:none;stroke-opacity:1;paint-order:stroke fill markers"
       d="m 323.25807,136.96774 -19.51614,36.19355"
       id="path14" />
  </g>
</svg>
